<?xml version="1.0" encoding="UTF-8"?>
<svg id="Livello_1" xmlns="http://www.w3.org/2000/svg" version="1.1" viewBox="0 0 167.3 86.9">
  <!-- Generator: Adobe Illustrator 30.0.0, SVG Export Plug-In . SVG Version: 2.1.1 Build 123)  -->
  <defs>
    <style>
      .st0 {
        fill: #fff;
      }
    </style>
  </defs>
  <path class="st0" d="M25.2,62.8c0,1-.8,1.8-1.8,1.8h-14.3c-1,0-1.8-.8-1.8-1.8s.8-1.8,1.8-1.8h14.3c1.1,0,1.8.8,1.8,1.8ZM23.4,68.2h-14.3c-1,0-1.8.8-1.8,1.8s.8,1.8,1.8,1.8h14.3c1,0,1.8-.8,1.8-1.8s-.7-1.8-1.8-1.8ZM23.4,75.4h-14.3c-1,0-1.8.8-1.8,1.8s.8,1.8,1.8,1.8h14.3c1,0,1.8-.8,1.8-1.8s-.7-1.8-1.8-1.8ZM71.8,55.7v25.1c0,3-2.4,5.4-5.4,5.4h-21.5c-3,0-5.4-2.4-5.4-5.4v-30.4c0-3,2.4-5.4,5.4-5.4h8.9v-3.6H18v3.5h3.6c.5,0,.9.2,1.3.5l8.9,8.9c.3.3.5.8.5,1.3v25.1c0,3-2.4,5.4-5.4,5.4H5.4c-3,0-5.4-2.4-5.4-5.4v-30.4c0-3,2.4-5.4,5.4-5.4h9.1v-3.6c0-1.9,1.6-3.6,3.6-3.6h16.1v-3.7h-16.1c-1.9,0-3.6-1.6-3.6-3.6V10.8c0-1.9,1.6-3.6,3.6-3.6h1.8v-3.6c0-1.9,1.6-3.6,3.6-3.6h30.4c1.9,0,3.6,1.6,3.6,3.6v25.1c0,3-2.4,5.4-5.4,5.4h-14.3v3.6h16.1c1.9,0,3.6,1.6,3.6,3.6v3.5h3.6c.5,0,.9.2,1.3.5l8.9,8.9c.4.4.6.9.6,1.4h-.1ZM23.4,7.4h6.1c1.3,0,2.6.7,3.2,1.9l1.7,3.4h12.3c1.9,0,3.6,1.6,3.6,3.6v12.6c0,1,.8,1.8,1.8,1.8s1.8-.8,1.8-1.8V3.9h-30.4v3.6h0ZM18.1,30.6h28.9c-.2-.6-.3-1.2-.3-1.8v-12.5h-12.2c-1.3,0-2.6-.7-3.2-1.9l-1.7-3.4h-11.4v19.6h-.1ZM28.8,80.7v-23.3h-7.2c-1,0-1.8-.8-1.8-1.8v-7.2H5.5c-1,0-1.8.8-1.8,1.8v30.4c0,1,.8,1.8,1.8,1.8h21.5c.9.1,1.8-.7,1.8-1.7h0ZM23.4,53.9h2.8l-2.8-2.8v2.8ZM62.8,53.9h2.8l-2.8-2.8v2.8ZM68.2,80.7v-23.3h-7.2c-1,0-1.8-.8-1.8-1.8v-7.2h-14.3c-1,0-1.8.8-1.8,1.8v30.4c0,1,.8,1.8,1.8,1.8h21.5c.9.1,1.8-.7,1.8-1.7h0ZM62.8,61h-14.3c-1,0-1.8.8-1.8,1.8s.8,1.8,1.8,1.8h14.3c1,0,1.8-.8,1.8-1.8s-.8-1.8-1.8-1.8ZM62.8,68.2h-14.3c-1,0-1.8.8-1.8,1.8s.8,1.8,1.8,1.8h14.3c1,0,1.8-.8,1.8-1.8s-.8-1.8-1.8-1.8ZM62.8,75.4h-14.3c-1,0-1.8.8-1.8,1.8s.8,1.8,1.8,1.8h14.3c1,0,1.8-.8,1.8-1.8s-.8-1.8-1.8-1.8Z"/>
  <path class="st0" d="M92.9,10.7c.3,0,.5,0,.6.1.1,0,.2.3.3.5l4.2,12.7v.6c0,.1-.3.2-.5.2h-3c-.5,0-.7-.2-.9-.7l-.5-1.6h-3.8l-.5,1.6c-.1.5-.5.7-.9.7h-3c-.2,0-.5,0-.5-.2s-.1-.4,0-.6l4.2-12.7c0-.2.1-.4.3-.5.1,0,.3-.1.6-.1h3.6-.2ZM92.3,19.1l-1.1-4.1h0l-1.2,4.1h2.4,0Z"/>
  <path class="st0" d="M102.4,14c.2,0,.4,0,.5.1,0,0,.1.2.2.5l.2,1.1c.1-.2.3-.5.5-.7s.4-.4.7-.6c.2-.1.5-.3.8-.5.3,0,.6-.1,1-.1s.5,0,.5.1c0,0,.1.3.1.5v2.8c0,.2,0,.4-.1.5h-1.4c-.7,0-1.2.1-1.5.5s-.5.8-.5,1.4v4.6c0,.5-.2.7-.7.7h-2.8c-.5,0-.7-.2-.7-.7v-9.6c0-.5.2-.7.7-.7h2.6-.1Z"/>
  <path class="st0" d="M107.7,19.4c0-1,.1-1.8.5-2.4.3-.7.7-1.3,1.2-1.8s1.1-.8,1.8-1.1c.7-.2,1.5-.4,2.4-.4s1.3,0,1.9.2c.7.1,1.1.3,1.5.5.2.1.4.3.5.5v.5l-.7,1.5c0,.2-.2.4-.5.4h-.6c-.2,0-.5-.1-.7-.2h-.8c-.7,0-1.1.1-1.5.5s-.5,1-.5,1.8.1,1.5.5,1.8c.4.4.9.5,1.6.5h.9c.3,0,.5-.1.7-.2.5-.2.8,0,1,.3l.7,1.5c0,.2.1.5,0,.5,0,.1-.2.3-.5.5-.4.2-.9.5-1.5.6-.7.1-1.3.2-1.9.2s-1.7-.1-2.4-.4c-.7-.2-1.3-.6-1.9-1.1s-.9-1.1-1.2-1.8c-.3-.6-.5-1.4-.5-2.4Z"/>
  <path class="st0" d="M129.6,24.2c0,.5-.2.7-.7.7h-2.8c-.5,0-.7-.2-.7-.7v-5.5c0-.5,0-.9-.2-1.2-.1-.2-.5-.4-.8-.4s-.8.1-1,.5c-.2.3-.3.7-.3,1.2v5.4c0,.5-.2.7-.7.7h-2.8c-.5,0-.7-.2-.7-.7v-12.9c0-.5.2-.7.7-.7h2.8c.5,0,.7.2.7.7v3.8c.2-.4.6-.7,1.1-.9.5-.3,1.1-.4,1.9-.4,1.3,0,2.2.4,2.7,1.1s.8,1.7.8,3v6.3Z"/>
  <path class="st0" d="M135.9,12.4c0,.5-.2.7-.7.7h-2.9c-.5,0-.7-.2-.7-.7v-1.1c0-.5.2-.7.7-.7h2.9c.5,0,.7.2.7.7v1.1ZM135.9,24.2c0,.5-.2.7-.7.7h-2.8c-.5,0-.7-.2-.7-.7v-9.5c0-.5.2-.7.7-.7h2.8c.5,0,.7.2.7.7v9.5Z"/>
  <path class="st0" d="M141.5,24.9c-.5,0-.7-.1-.9-.5l-3.4-9.5v-.6c0-.1.2-.2.5-.2h2.8c.5,0,.7.2.8.6l1,3.6.6,2.5h0l.6-2.5,1-3.6c0-.5.4-.6.8-.6h2.8c.2,0,.4,0,.5.2v.6l-3.4,9.5c-.1.4-.5.5-.9.5h-3,.2Z"/>
  <path class="st0" d="M154.3,12.4c0,.5-.2.7-.7.7h-2.9c-.5,0-.7-.2-.7-.7v-1.1c0-.5.2-.7.7-.7h2.9c.5,0,.7.2.7.7v1.1ZM154.2,24.2c0,.5-.2.7-.7.7h-2.8c-.5,0-.7-.2-.7-.7v-9.5c0-.5.2-.7.7-.7h2.8c.5,0,.7.2.7.7v9.5Z"/>
  <path class="st0" d="M161.6,25.1c-.8,0-1.7-.1-2.3-.4-.7-.2-1.3-.6-1.8-1.1s-.9-1.1-1.1-1.8c-.3-.7-.4-1.6-.4-2.4s.1-1.8.4-2.4c.3-.7.7-1.3,1.1-1.8.5-.5,1.1-.8,1.8-1.1.7-.2,1.5-.4,2.3-.4s1.7.1,2.3.4c.7.2,1.3.6,1.8,1.1s.9,1.1,1.1,1.8c.3.7.4,1.6.4,2.4s-.1,1.8-.4,2.4c-.3.7-.7,1.3-1.1,1.8-.5.5-1.1.8-1.8,1.1-.7.3-1.5.4-2.3.4ZM161.6,22c.5,0,.8-.2,1.1-.6.2-.4.3-1.1.3-1.9s0-1.6-.3-1.9c-.2-.4-.6-.6-1.1-.6s-.8.2-1.1.6c-.3.4-.3,1.1-.3,1.9s0,1.6.3,1.9c.3.4.6.6,1.1.6Z"/>
  <path class="st0" d="M95.7,44.9c0,.8-.1,1.5-.5,2-.3.6-.7,1.1-1.3,1.3-.5.3-1.1.6-1.8.7-.7.1-1.3.2-2.1.2s-2,0-2.9-.3c-.8-.2-1.5-.5-2.1-.7-.2,0-.4-.2-.5-.4v-.5l.7-1.9c0-.2.2-.4.4-.5h.6c.4.1.7.3,1.3.5.5.1,1.1.2,1.7.2s1.1,0,1.4-.1c.4,0,.6-.3.6-.7s-.1-.5-.5-.7c-.4-.1-.8-.4-1.5-.6-.5-.2-1.1-.4-1.6-.6s-1-.5-1.4-.9c-.5-.4-.7-.8-1-1.3-.2-.5-.4-1.2-.4-2s.1-1.3.4-1.9c.2-.5.6-1,1.1-1.3s1.1-.6,1.7-.7c.7-.1,1.4-.2,2.3-.2s1.9,0,2.6.3c.7.2,1.3.4,1.7.6.2,0,.4.2.5.4v.5l-.7,1.8c-.1.5-.5.6-.9.5s-.8-.2-1.3-.3h-1.3c-.4,0-.8,0-1.1.1-.3,0-.5.3-.5.6s.1.5.5.7c.3.1.8.4,1.5.7.6.2,1.1.5,1.7.7.5.2,1,.5,1.4.8s.7.7,1,1.3c0,.3.1,1,.1,1.7h.2Z"/>
  <path class="st0" d="M101.8,41.6v3.8c0,.3,0,.6.2.7.1.1.4.2.7.2h.8c.4,0,.6.2.6.6v1.7c0,.2,0,.4-.1.5-.1,0-.3.1-.5.2-.2,0-.5,0-.8.1h-1.1c-1.3,0-2.2-.2-2.8-.7-.6-.5-1-1.4-1-2.7v-4.2h-.7c-.5,0-.7-.2-.7-.7v-1.6c0-.5.2-.7.7-.7h.7v-2.4c0-.4.2-.6.7-.6h2.6c.5,0,.7.2.7.6v2.4h1.7c.5,0,.7.2.7.7v1.6c0,.5-.2.7-.7.7h-1.5l-.2-.2Z"/>
  <path class="st0" d="M110.8,49.4c-.8,0-1.7-.1-2.3-.4-.7-.2-1.3-.6-1.8-1.1s-.9-1.1-1.1-1.8c-.3-.7-.4-1.6-.4-2.4s.1-1.8.4-2.4c.3-.7.7-1.3,1.1-1.8.5-.5,1.1-.8,1.8-1.1.7-.2,1.5-.4,2.3-.4s1.7.1,2.3.4c.7.2,1.3.6,1.8,1.1s.9,1.1,1.1,1.8c.3.7.4,1.6.4,2.4s-.1,1.8-.4,2.4c-.3.7-.7,1.3-1.1,1.8-.5.5-1.1.8-1.8,1.1-.7.3-1.5.4-2.3.4ZM110.8,46.2c.5,0,.8-.2,1.1-.6.2-.4.3-1.1.3-1.9s0-1.6-.3-1.9c-.2-.4-.6-.6-1.1-.6s-.8.2-1.1.6c-.2.4-.3,1.1-.3,1.9s0,1.6.3,1.9c.2.4.6.6,1.1.6Z"/>
  <path class="st0" d="M121.2,38.2c.2,0,.4,0,.5.1,0,0,.1.2.2.5l.2,1.1c.1-.2.3-.5.5-.7s.4-.4.7-.6c.2-.1.5-.3.8-.5.3,0,.6-.1,1-.1s.5,0,.5.1c0,0,.1.3.1.5v2.8c0,.2,0,.4-.1.5h-1.3c-.7,0-1.2.1-1.5.5s-.5.8-.5,1.4v4.6c0,.5-.2.7-.7.7h-2.8c-.5,0-.7-.2-.7-.7v-9.6c0-.5.2-.7.7-.7h2.6-.2Z"/>
  <path class="st0" d="M131.3,36.5c0,.5-.2.7-.7.7h-2.9c-.5,0-.7-.2-.7-.7v-1.1c0-.5.2-.7.7-.7h2.9c.5,0,.7.2.7.7v1.1ZM131.3,48.4c0,.5-.2.7-.7.7h-2.8c-.5,0-.7-.2-.7-.7v-9.5c0-.5.2-.7.7-.7h2.8c.5,0,.7.2.7.7v9.5Z"/>
  <path class="st0" d="M133.1,43.7c0-1,.1-1.8.5-2.4.3-.7.7-1.3,1.2-1.8s1.1-.8,1.8-1.1c.7-.2,1.5-.4,2.4-.4s1.3,0,1.9.2c.7.1,1.1.3,1.5.5.2.1.4.3.5.5v.5l-.7,1.5c0,.2-.2.4-.5.4h-.6c-.2,0-.5-.1-.7-.2h-.8c-.7,0-1.1.1-1.5.5s-.5,1-.5,1.8.1,1.5.5,1.8c.4.4.9.5,1.6.5h.9c.3,0,.5-.1.7-.2.5-.2.8,0,1,.3l.7,1.5c0,.2.1.5,0,.5,0,.1-.2.3-.5.5-.4.2-.9.5-1.5.6-.7.1-1.3.2-1.9.2s-1.7-.1-2.4-.4c-.7-.2-1.3-.6-1.9-1.1-.5-.5-.9-1.1-1.2-1.8-.5-.6-.5-1.5-.5-2.4Z"/>
  <path class="st0" d="M149.1,49.4c-.8,0-1.7-.1-2.3-.4-.7-.2-1.3-.6-1.8-1.1s-.9-1.1-1.1-1.8c-.3-.7-.4-1.6-.4-2.4s.1-1.8.4-2.4c.3-.7.7-1.3,1.1-1.8.5-.5,1.1-.8,1.8-1.1.7-.2,1.5-.4,2.3-.4s1.7.1,2.3.4c.7.2,1.3.6,1.8,1.1s.9,1.1,1.1,1.8c.3.7.4,1.6.4,2.4s-.1,1.8-.4,2.4c-.3.7-.7,1.3-1.1,1.8-.5.5-1.1.8-1.8,1.1-.7.3-1.4.4-2.3.4ZM149.1,46.2c.5,0,.8-.2,1.1-.6.2-.4.3-1.1.3-1.9s0-1.6-.3-1.9c-.2-.4-.6-.6-1.1-.6s-.8.2-1.1.6c-.2.4-.3,1.1-.3,1.9s0,1.6.3,1.9c.3.4.6.6,1.1.6Z"/>
  <path class="st0" d="M95.7,69c0,.8-.1,1.5-.5,2.1-.3.6-.7,1.1-1.3,1.3-.5.4-1.1.6-1.8.7-.7.1-1.3.2-2.1.2s-2,0-2.9-.3c-.8-.2-1.5-.5-2.1-.7-.2,0-.4-.2-.5-.4v-.5l.7-1.9c0-.2.2-.4.4-.5h.6c.4.1.7.3,1.3.5.5.1,1.1.2,1.7.2s1.1,0,1.4-.1c.4,0,.6-.3.6-.7s-.1-.5-.5-.7c-.4-.1-.8-.4-1.5-.6-.5-.2-1.1-.4-1.6-.6s-1-.5-1.4-.9c-.5-.4-.7-.8-1-1.3s-.4-1.2-.4-2,.1-1.3.4-1.9c.2-.5.6-1,1.1-1.3s1.1-.6,1.7-.7c.7-.1,1.4-.2,2.3-.2s1.9,0,2.6.3c.7.2,1.3.4,1.7.6.2,0,.4.2.5.4v.5l-.7,1.8c-.1.5-.5.6-.9.5s-.8-.2-1.3-.3h-1.3c-.4,0-.8,0-1.1.1-.3,0-.5.3-.5.6s.1.5.5.7c.3.1.8.4,1.5.7.6.2,1.1.5,1.7.7.5.2,1,.5,1.4.8s.7.7,1,1.3c0,.4.1,1,.1,1.7h.2Z"/>
  <path class="st0" d="M101.3,63.5c.1-.2.4-.4.6-.5s.5-.3.7-.5c.3-.1.5-.2.8-.3.3-.1.6,0,.8,0,1.3,0,2.4.5,3.2,1.4.7.9,1.1,2.4,1.1,4.2s-.4,3.4-1.1,4.2c-.7.9-1.8,1.4-3.2,1.4s-.5,0-.7,0c-.3,0-.5-.1-.8-.2-.2,0-.5-.2-.7-.4-.2-.1-.4-.3-.5-.5v2.4c0,.5-.2.7-.7.7h-2.8c-.5,0-.7-.2-.7-.7v-11.8c0-.5.2-.7.7-.7h2.4c.2,0,.4,0,.5.1,0,0,.1.2.2.4l.2.8ZM101.3,67.8c0,.9.1,1.6.4,1.9.2.4.6.5,1.1.5s.8-.1,1.1-.5c.2-.4.4-1.1.4-1.9s-.1-1.6-.4-1.9-.6-.5-1.1-.5-.8.1-1.1.5c-.3.4-.4,1-.4,1.9Z"/>
  <path class="st0" d="M114.5,60.7c0,.5-.2.7-.7.7h-2.9c-.5,0-.7-.2-.7-.7v-1.1c0-.5.2-.7.7-.7h2.9c.5,0,.7.2.7.7v1.1ZM114.5,72.6c0,.5-.2.7-.7.7h-2.8c-.5,0-.7-.2-.7-.7v-9.5c0-.5.2-.7.7-.7h2.8c.5,0,.7.2.7.7v9.5Z"/>
  <path class="st0" d="M129.5,69.7c.5,0,.8,0,1.1-.1.4,0,.6-.1.8-.3.3,0,.5-.1.6,0,.1,0,.3.1.4.5l.8,1.8c0,.2.1.4,0,.5,0,.1-.2.3-.5.5-.5.3-1.1.5-1.7.7-.7.2-1.6.3-2.4.3s-1.9-.1-2.8-.5c-.8-.3-1.6-.7-2.2-1.3-.6-.6-1.1-1.3-1.4-2.3-.3-.9-.5-2-.5-3.4s.1-2.4.5-3.4c.3-.9.7-1.7,1.3-2.3s1.3-1.1,2.1-1.3c.9-.2,1.8-.5,2.8-.5s1.7,0,2.4.3c.7.2,1.3.5,1.7.7s.4.3.5.5v.5l-.8,1.8c0,.2-.2.4-.4.5h-.6c-.2,0-.5-.1-.8-.2h-1.1c-1.1,0-1.9.3-2.3.8-.5.5-.7,1.5-.7,2.8s.2,2.2.7,2.8c.5.5,1.3.7,2.4.7h.1Z"/>
  <path class="st0" d="M145.2,71c0,1.6-.5,2.8-1.4,3.5-1,.7-2.4,1.2-4.2,1.2s-.7,0-1.1,0-.7,0-1.1-.1-.7-.1-1-.2c-.3,0-.5-.1-.7-.3-.2,0-.4-.2-.5-.4v-.5l.4-1.5c.1-.5.4-.6.9-.5.3,0,.7.2,1.1.3.5,0,1,.1,1.5.1.9,0,1.5-.1,1.8-.5s.5-.8.5-1.4v-.3c-.3.4-.7.7-1.1.9-.5.2-1.1.3-1.6.3s-1.1,0-1.7-.2c-.5-.1-1-.5-1.3-.8s-.7-.8-.9-1.4c-.2-.6-.3-1.3-.3-2.2s0-1.6.3-2.2c.2-.6.5-1.1.8-1.5.4-.4.7-.7,1.3-.8.5-.1,1.1-.2,1.6-.2s1.2.1,1.7.4c.5.2.9.5,1.2,1v-.6c.2-.1.2-.3.3-.4,0,0,.3-.1.5-.1h2.4c.5,0,.7.2.7.7v7.9h0v-.2ZM141.1,66.9c0-1.3-.5-1.9-1.3-1.9s-.7.1-1,.5c-.2.3-.3.8-.3,1.5s0,1.1.3,1.5c.2.3.5.5,1,.5.9-.2,1.3-.8,1.3-2.1Z"/>
  <path class="st0" d="M151.4,60.7c0,.5-.2.7-.7.7h-2.9c-.5,0-.7-.2-.7-.7v-1.1c0-.5.2-.7.7-.7h2.9c.5,0,.7.2.7.7v1.1ZM151.4,72.6c0,.5-.2.7-.7.7h-2.8c-.5,0-.7-.2-.7-.7v-9.5c0-.5.2-.7.7-.7h2.8c.5,0,.7.2.7.7v9.5Z"/>
  <path class="st0" d="M157.7,72.6c0,.5-.2.7-.7.7h-2.8c-.5,0-.7-.2-.7-.7v-12.9c0-.5.2-.7.7-.7h2.8c.5,0,.7.2.7.7v12.9Z"/>
</svg>