<?xml version="1.0" encoding="UTF-8"?>
<svg id="Livello_1" data-name="Livello 1" xmlns="http://www.w3.org/2000/svg" viewBox="0 0 98.5 135.8">
  <defs>
    <style>
      .cls-1 {
        fill: #d51317;
      }
    </style>
  </defs>
  <g>
    <path d="M18.2,10.3c2.7,0,5,1.5,6.9,3.2l-.3-12.2c-2.5-.8-5.2-1.3-7.9-1.3C7.4,0,0,7.5,0,16.8s7.2,16.3,16.4,16.2c2.1,0,6.4-.4,8.3-1.3l.3-12c-1.9,1.9-4,3-6.7,3s-6.5-2.7-6.5-6.2c0-3.4,2.9-6.2,6.4-6.2Z"/>
    <path d="M42.6,21.2h5.3c-.6,2-3,2.8-4.8,2.8-3.8,0-6-3.3-6-6.8s2.3-7.4,6.5-7.4,3.6.9,4.5,2.5l11-4C56.6,2.9,48.9,0,43.3,0c-10.2,0-17.9,6.2-17.9,16.7s8,16.3,17.8,16.3,10.3-2,13.7-5.7c3.8-4.1,3.8-8.5,3.9-13.7h0c0-.1-18.2-.1-18.2-.1v7.6Z"/>
    <rect x="62.3" y=".5" width="11.7" height="32"/>
    <polygon points="88.6 .5 76.9 .5 76.9 32.6 98.5 32.6 98.5 22.3 88.6 22.3 88.6 .5"/>
  </g>
  <g>
    <path class="cls-1" d="M0,38v97.8h98.5V38H0ZM24.1,126.7c-4.4,0-9.4-1.9-13.3-5l3.8-15.5.6.8c2.2,2.7,5,5,7.9,5s3.2-.8,3.2-3.3-1.7-2.7-2.8-3l-2.5-.7c-4.9-1.4-9-5.9-9-14.5,0-12.9,7.5-20.2,15-20.2s7.6,1.5,11,4.8l-3.4,14c-2.2-2.3-4.6-4.1-7.3-4.1s-2.7.7-2.7,2.9,1.6,2.3,2.5,2.7l2.8,1c5.3,1.9,9.2,6.4,9.2,15.6s-7.5,19.5-15,19.5ZM60.7,109.3h-6.4v16.4h-12.1v-54.5h15.9c8.1,0,14,6.5,14,20s-4.4,18.1-11.4,18.1ZM87.6,125.6h-12.6v-54.5h12.6v54.5ZM87.7,59.8H11.1v-12.5h76.6v12.5Z"/>
    <path class="cls-1" d="M55.5,86h-1.2v9.5h1.2c2.2,0,4.6-.6,4.6-5s-2.6-4.5-4.6-4.5Z"/>
  </g>
</svg>