<svg viewBox="0 0 56 74" xmlns="http://www.w3.org/2000/svg" style="width: 100%; height: 100%;">
<path d="M28 0C12.52 0 0 11.549 0 25.8284C0 32.2486 2 38.263 5.64 43.6869C9.44 49.3692 14.44 54.2397 18.28 59.9219C20.16 62.6893 21.52 65.2721 22.96 68.2608C24 70.2902 24.84 73.7955 28 73.7955C31.16 73.7955 32 70.2902 33 68.2608C34.48 65.2721 35.8 62.6893 37.68 59.9219C41.52 54.2766 46.52 49.4061 50.32 43.6869C54 38.263 56 32.2486 56 25.8284C56 11.549 43.48 0 28 0ZM28 35.9753C22.48 35.9753 18 31.8427 18 26.7509C18 21.659 22.48 17.5264 28 17.5264C33.52 17.5264 38 21.659 38 26.7509C38 31.8427 33.52 35.9753 28 35.9753Z" fill="#FAB900"/>
</svg>
