<?xml version="1.0" encoding="UTF-8"?>
<svg id="Livello_1" xmlns="http://www.w3.org/2000/svg" version="1.1" viewBox="0 0 161.9 85.5">
  <!-- Generator: Adobe Illustrator 30.0.0, SVG Export Plug-In . SVG Version: 2.1.1 Build 123)  -->
  <defs>
    <style>
      .st0 {
        fill: #fff;
      }
    </style>
  </defs>
  <path class="st0" d="M36.8,8.3l-18.1-1.8,7.2,15L0,31.7l23.8,12.8-11.8,14.1,15.6,1.2-6.2,24.8,17.4-7.1,5.7,7.9,5-3.2-8.4-12.6-11.3,4.6,5.2-19.2-11.5-1.2,9.1-11.2-18.8-10.2,21.1-7-6.5-12,10.8,1.4,10-11.3-4.4-4-8,8.8h0ZM117.6-.5l-5,3.2,8.3,12.6,11.3-4.6-5.2,19.2,11.5,1.2-9.1,11.3,18.7,10.2-21.1,7,6.5,12-10.8-1.4-10,11.3,4.4,4,8.1-8.6,18.1,1.8-7.2-15,25.9-10.2-23.8-12.8,11.8-14.1-15.5-1.3,6.2-24.8-17.5,7-5.7-7.9h.1Z"/>
  <path class="st0" d="M86.7,29.4l-11.1,11.2-.3-11.2h11.4ZM83,56.4h-7.7v-7.1h12v3.6c0,1.1-.4,2-1.1,2.5-.8.6-1.9.9-3.2.9h0ZM54.9,13.4v58h33.6c6.4,0,11.4-1.4,15-4.3s5.4-6.8,5.4-11.7-.9-6-2.6-8.5c-1.8-2.4-4.1-4.2-7.2-5.3l-3.4-1.2,9.6-11V13.3h-50.4Z"/>
</svg>