<?xml version="1.0" encoding="UTF-8"?>
<svg id="Livello_1" data-name="Livello 1" xmlns="http://www.w3.org/2000/svg" viewBox="0 0 124 80">
  <defs>
    <style>
      .cls-1 {
        fill: #e73927;
      }

      .cls-2 {
        fill: #fff;
      }

      .cls-3 {
        fill: #2c2e36;
      }
    </style>
  </defs>
  <path class="cls-1" d="M0,80h57.6V22.4H0v57.6Z"/>
  <path class="cls-2" d="M6.5,35.2h44.8v-7.4H6.5v7.4Z"/>
  <path class="cls-2" d="M8.5,62.5l.4.5c1.3,1.6,2.9,2.9,4.6,2.9s1.9-.5,1.9-1.9-1-1.6-1.6-1.8l-1.5-.4c-2.9-.8-5.3-3.5-5.3-8.5,0-7.6,4.4-11.9,8.8-11.9s4.4.9,6.4,2.8l-2,8.2c-1.3-1.4-2.7-2.4-4.3-2.4s-1.6.4-1.6,1.7.9,1.4,1.5,1.6l1.7.6c3.1,1.1,5.4,3.8,5.4,9.2s-4.4,11.5-8.8,11.5-5.5-1.1-7.8-2.9l2.3-9.1Z"/>
  <path class="cls-2" d="M31.8,56.3h.7c1.3,0,2.7-.3,2.7-2.9s-1.5-2.6-2.7-2.6h-.7v5.6ZM24.7,41.9h9.3c4.7,0,8.2,3.8,8.2,11.8s-2.6,10.7-6.7,10.7h-3.8v9.7h-7.1v-32.1Z"/>
  <path class="cls-2" d="M43.9,74h7.4v-32.1h-7.4v32.1Z"/>
  <path class="cls-3" d="M14.7,8c-1.1-1-2.5-1.9-4-1.9s-3.7,1.6-3.7,3.7,1.8,3.7,3.8,3.7,2.8-.7,3.9-1.8l-.2,7.1c-1.1.5-3.7.8-4.9.8C4.2,19.5,0,15.3,0,9.9S4.3,0,9.9,0s3.2.3,4.6.8l.2,7.2Z"/>
  <path class="cls-3" d="M35.5,8.1c0,3.1,0,5.7-2.3,8.1-2,2.2-5.1,3.4-8,3.4-5.8,0-10.4-3.6-10.4-9.6S19.4,0,25.3,0s7.8,1.6,9.3,4.9l-6.4,2.4c-.5-1-1.5-1.5-2.6-1.5-2.5,0-3.8,2.1-3.8,4.4s1.3,4,3.5,4,2.5-.5,2.8-1.7h-3.1v-4.5h10.6Z"/>
  <path class="cls-3" d="M36.4,19.2h6.9V.3h-6.9v18.9Z"/>
  <path class="cls-3" d="M45,.3h6.9v12.8h5.8v6.1h-12.6V.3Z"/>
  <path class="cls-3" d="M63.4,34.7c0,.7.6,1.2,1.2,1.2s1.1-.5,1.1-1.2c0-1-.8-1.3-1.5-1.6-.6-.2-1.1-.4-1.5-.9-.4-.5-.7-1.1-.7-1.8,0-1.5,1.2-2.6,2.6-2.6s2.6,1.2,2.6,2.6h-1.7c0-.6-.5-1-1-1s-.9.4-.9,1c0,.7.6.9,1.1,1.1.6.2,1.2.4,1.7.9.6.5.9,1.2.9,2.1,0,1.7-1.3,2.9-2.9,2.9s-2.8-1.2-2.8-2.8h1.7Z"/>
  <path class="cls-3" d="M67.9,37.3h1.6v-9.3h-1.6v9.3Z"/>
  <path class="cls-3" d="M70.5,28h1.8l3.7,6.8v-6.8h1.6v9.3h-1.8l-3.7-6.7v6.7h-1.6v-9.3Z"/>
  <path class="cls-3" d="M80.4,35.6c.9,0,1.8,0,2.5-.6.7-.6,1.1-1.4,1.1-2.3s-.4-1.9-1.2-2.5c-.7-.5-1.6-.6-2.5-.6h-.1v5.9h.2ZM78.6,28h1.8c1.3,0,2.7.2,3.7,1.1,1,.9,1.5,2.3,1.5,3.6s-.6,2.7-1.5,3.5c-1.1,1-2.3,1.1-3.7,1.1h-1.9v-9.3Z"/>
  <path class="cls-3" d="M90.7,33.2l-.9-2.8-.9,2.8h1.9ZM89.1,28h1.3l3.7,9.3h-1.8l-1-2.4h-3.1l-1,2.4h-1.8l3.7-9.3Z"/>
  <path class="cls-3" d="M102.5,34.8c-.7,1.7-2.4,2.7-4.1,2.7-2.5,0-4.6-2.2-4.6-4.9s2.1-4.8,4.5-4.8,3.5,1.1,4.2,2.8h-1.9c-.5-.7-1.4-1.2-2.3-1.2-1.6,0-2.9,1.5-2.9,3.2s1.3,3.1,2.9,3.1,1.6-.4,2.2-1.1h1.9Z"/>
  <path class="cls-3" d="M107.4,33.2l-.9-2.8-.9,2.8h1.9ZM105.8,28h1.3l3.7,9.3h-1.8l-1-2.4h-3.1l-1,2.4h-1.8l3.7-9.3Z"/>
  <path class="cls-3" d="M111.9,29.7h-1.6v-1.7h4.9v1.7h-1.6v7.6h-1.6v-7.6Z"/>
  <path class="cls-3" d="M119.4,29.5h0c-1.6,0-3,1.4-3,3.2s1.3,3.1,3,3.1,3-1.4,3-3.1-1.3-3.2-3-3.2ZM124,32.7c0,2.7-2.1,4.8-4.6,4.8s-4.6-2.1-4.6-4.8,2-4.9,4.6-4.9,4.6,2.1,4.6,4.9Z"/>
  <path class="cls-3" d="M64.4,43.5c.4,0,.9,0,1.3-.1.5-.2.8-.6.8-1.1s-.4-1-.9-1.1c-.4-.1-.9,0-1.3,0h-.3v2.4h.3ZM62.4,48.6v-9.3h2.1c.9,0,1.7,0,2.5.5.7.5,1.2,1.4,1.2,2.3s-.4,1.8-1.1,2.4c-.7.6-1.8.6-2.7.6h-.3v3.5h-1.7Z"/>
  <path class="cls-3" d="M68.6,39.4h4.9v1.7h-3.2v2.1h3.1v1.7h-3.1v2.1h3.2v1.7h-4.9v-9.3Z"/>
  <path class="cls-3" d="M74.2,39.4h1.9l3.8,6.8v-6.8h1.7v9.3h-1.9l-3.8-6.7v6.7h-1.7v-9.3Z"/>
  <path class="cls-3" d="M83.7,46c0,.7.6,1.2,1.3,1.2s1.2-.5,1.2-1.2c0-1-.8-1.3-1.6-1.6-.6-.2-1.1-.4-1.6-.9-.4-.5-.7-1.1-.7-1.8,0-1.5,1.2-2.6,2.7-2.6s2.7,1.2,2.7,2.6h-1.7c0-.6-.5-1-1-1s-.9.4-.9,1c0,.7.6.9,1.1,1.1.6.2,1.3.4,1.8.9.7.5,1,1.2,1,2.1,0,1.7-1.3,2.9-2.9,2.9s-2.9-1.2-2.9-2.8h1.8Z"/>
  <path class="cls-3" d="M88.2,48.6h1.7v-9.3h-1.7v9.3Z"/>
  <path class="cls-3" d="M95.2,40.9h0c-1.7,0-3,1.4-3,3.2s1.4,3.1,3,3.1,3.1-1.4,3.1-3.1-1.4-3.2-3.1-3.2ZM99.9,44c0,2.7-2.1,4.8-4.7,4.8s-4.7-2.1-4.7-4.8,2.1-4.9,4.7-4.9,4.7,2.1,4.7,4.9Z"/>
  <path class="cls-3" d="M100.5,39.4h1.9l3.8,6.8v-6.8h1.7v9.3h-1.9l-3.8-6.7v6.7h-1.7v-9.3Z"/>
  <path class="cls-3" d="M113.5,44.6l-1-2.8-1,2.8h1.9ZM111.9,39.4h1.3l3.8,9.3h-1.9l-1-2.4h-3.2l-1,2.4h-1.9l3.8-9.3Z"/>
  <path class="cls-3" d="M118.1,41h-1.7v-1.7h5.1v1.7h-1.7v7.6h-1.7v-7.6Z"/>
  <path class="cls-3" d="M121.6,48.6h1.7v-9.3h-1.7v9.3Z"/>
  <path class="cls-3" d="M62.4,60h1.7v-9.3h-1.7v9.3Z"/>
  <path class="cls-3" d="M66,52.4h-1.7v-1.7h5v1.7h-1.7v7.6h-1.7v-7.6Z"/>
  <path class="cls-3" d="M74.2,55.9l-1-2.8-1,2.8h1.9ZM72.6,50.7h1.3l3.8,9.3h-1.9l-1-2.4h-3.2l-1,2.4h-1.9l3.8-9.3Z"/>
  <path class="cls-3" d="M77.9,50.7h1.7v7.6h2.8v1.7h-4.5v-9.3Z"/>
  <path class="cls-3" d="M82.6,60h1.7v-9.3h-1.7v9.3Z"/>
  <path class="cls-3" d="M89.9,55.9l-1-2.8-1,2.8h1.9ZM88.3,50.7h1.3l3.8,9.3h-1.9l-1-2.4h-3.2l-1,2.4h-1.9l3.8-9.3Z"/>
  <path class="cls-3" d="M93.6,50.7h1.9l3.8,6.8v-6.8h1.7v9.3h-1.9l-3.8-6.7v6.7h-1.7v-9.3Z"/>
  <path class="cls-3" d="M102,60h1.7v-9.3h-1.7v9.3Z"/>
</svg>