<?xml version="1.0" encoding="UTF-8"?>
<svg id="Livello_1" xmlns="http://www.w3.org/2000/svg" version="1.1" viewBox="0 0 265.2 86.7">
  <!-- Generator: Adobe Illustrator 30.0.0, SVG Export Plug-In . SVG Version: 2.1.1 Build 123)  -->
  <defs>
    <style>
      .st0 {
        fill: #fff;
      }
    </style>
  </defs>
  <path class="st0" d="M156.9,9.6v29.1c0,1.7,1.4,3.2,3.2,3.2h8.1c.9,0,1.6-.7,1.6-1.6v-2.9c0-1.7-1.4-3.2-3.2-3.2h-.7v-13.9h2.3c.9,0,1.6-.7,1.6-1.6v-4.5c0-.9-.7-1.6-1.6-1.6h-2.3v-4.6c0-.9-.7-1.6-1.6-1.6h-4.2c-1.7,0-3.2,1.4-3.2,3.1h0Z"/>
  <path class="st0" d="M109.6,15.7v22.9c0,1.7,1.4,3.2,3.2,3.2h4.3c.9,0,1.6-.7,1.6-1.6v-20h7c.9,0,1.6-.7,1.6-1.6v-4.5c0-.9-.7-1.6-1.6-1.6h-12.8c-1.8,0-3.2,1.4-3.2,3.1h-.1Z"/>
  <path class="st0" d="M61.2,42.7c7.7,0,13.4-6.9,13.4-15.4s-5.7-15.5-13.4-15.5-8.3,2.2-10,5.3h-.3V5.9c0-.9-.7-1.6-1.6-1.6h-4.3c-1.7,0-3.2,1.4-3.2,3.2v32.9c0,.9.7,1.6,1.6,1.6h5.6c.9,0,1.6-.7,1.6-1.6v-2.6h.3c2.8,3.8,6.4,5,10.3,5h0ZM58.5,34.2c-4.1,0-6.5-2.9-6.5-7s2.4-7,6.5-7,6.4,2.9,6.4,7-2.2,7-6.4,7Z"/>
  <path class="st0" d="M179.2,4.3h8.4l.5,1.4c.7,2.1-.8,4.3-3,4.3h-6.1l-1.3-3.5c-.4-1,.3-2.1,1.5-2.1h0Z"/>
  <path class="st0" d="M198.9,39.8l-9.1-25.2c-.5-1.2-1.6-2.1-3-2.1h-11.6c-.9,0-1.6.7-1.6,1.6v3c0,1.7,1.4,3.2,3.2,3.2h6.7l1,2.8c-1.1-.5-2.5-.6-3.8-.6-4.9,0-9.5,3.8-9.5,10s4.6,10.1,10.1,10.1,7.3-1.6,8.3-4.9h.2l.7,2c.5,1.2,1.6,2.1,3,2.1h3.8c1.1,0,1.9-1,1.5-2.1h0ZM182.5,29.2c1.8,0,3.3,1.5,3.3,3.3s-1.5,3.3-3.3,3.3-3.3-1.5-3.3-3.3,1.5-3.3,3.3-3.3Z"/>
  <path class="st0" d="M97.2,22.7l-11.7,4.2c0-2.6,1.7-5.1,4.4-6.1,2.6-.9,5.5-.1,7.3,1.9ZM107.3,23.7c-.1-.6-.3-1.2-.6-1.8-2.9-8-11.8-12.2-19.8-9.2-8,2.9-12.2,11.8-9.2,19.8,2.9,8,11.8,12.2,19.8,9.2,5.4-2,9-6.6,9.9-11.8.2-1.2-1-2.2-2.1-1.7l-7.5,2.8-.4.6c-1.2,1.7-3,2.8-5.1,2.8s-3.2-.7-4.4-1.8l10.9-3.9,7.5-2.7c.8-.5,1.2-1.3,1.1-2.1v-.2Z"/>
  <path class="st0" d="M25.9,38.7v-3c0-.9-.7-1.6-1.6-1.6h-11.8V5.8c0-.9-.7-1.6-1.6-1.6h-4.3c-1.7,0-3.2,1.4-3.2,3.2v31.3c0,1.7,1.4,3.2,3.2,3.2h16.1c1.7-.1,3.2-1.5,3.2-3.3h0Z"/>
  <path class="st0" d="M138.9,34.2v-3.6h10.6c.9,0,1.6-.7,1.6-1.6v-3.6c0-.9-.7-1.6-1.6-1.6h-10.6v-3.5h12c1.7,0,3.2-1.4,3.2-3.2v-2.9c0-.9-.7-1.6-1.6-1.6h-19.4c-1.7,0-3.2,1.4-3.2,3.2v23c0,1.7,1.4,3.2,3.2,3.2h17.8c1.7,0,3.2-1.4,3.2-3.2v-3c0-.9-.7-1.6-1.6-1.6h-13.6Z"/>
  <path class="st0" d="M32.4,42.1h4.3c.9,0,1.6-.7,1.6-1.6V14.3c.1-.9-.6-1.6-1.5-1.6h-5.9c-.9,0-1.6.7-1.6,1.6v24.6c-.2,1.7,1.3,3.2,3,3.2h0Z"/>
  <path class="st0" d="M33.8,10.7c2.9,0,5.3-2.4,5.4-5.3,0-2.9-2.4-5.3-5.3-5.4-2.9,0-5.3,2.4-5.4,5.3,0,3,2.4,5.4,5.3,5.4Z"/>
  <path class="st0" d="M261.7,50H3.4v3.9h258.3v-3.9Z"/>
  <path class="st0" d="M163.3,83.1c-.1.1-.2.3-.2.5s0,.3.2.5.3.2.5.2.4,0,.5-.2c.1-.1.2-.3.2-.5s0-.3-.2-.5-.3-.2-.5-.2-.4,0-.5.2ZM160.9,78.2c.1.1.3.2.4.2s.3,0,.5-.2.2-.3.2-.5,0-.3-.2-.5-.3-.2-.5-.2-.3,0-.4.2c-.1.1-.2.3-.2.5s0,.3.2.5ZM161.9,79.1h-1.1v5.1h1.1v-5.1ZM157.8,77.9v1.2h-.8v.8h.8v2.9c0,1,.5,1.5,1.3,1.5s.5,0,.7-.1v-.9h-.4c-.2,0-.3,0-.4-.1,0-.1-.1-.2-.1-.4v-2.8h.9v-.8h-.9v-1.2h-1.1ZM154.6,77.9v1.2h-.8v.8h.8v2.9c0,1,.5,1.5,1.3,1.5s.5,0,.7-.1v-.9h-.4c-.2,0-.3,0-.4-.1,0-.1-.1-.2-.1-.4v-2.8h.9v-.8h-.9v-1.2h-1.1ZM152.1,78.2c.1.1.3.2.5.2s.3,0,.5-.2.2-.3.2-.5,0-.3-.2-.5-.3-.2-.5-.2-.3,0-.5.2-.2.3-.2.5,0,.3.2.5ZM153.1,79.1h-1.1v5.1h1.1v-5.1ZM151.2,79.1h-.4c-.5,0-.8.2-1.1.7v-.6h-1.1v5.1h1.1v-3.4c.2-.4.5-.6,1.1-.6s.3,0,.5,0v-1.1h-.1ZM146.2,78.2c.1.1.3.2.5.2s.3,0,.5-.2.2-.3.2-.5,0-.3-.2-.5-.3-.2-.5-.2-.3,0-.5.2-.2.3-.2.5,0,.3.2.5ZM147.3,79.1h-1.1v5.1h1.1v-5.1ZM141.9,80.4c.2-.3.5-.5.8-.5s.8.2,1,.6v2.1c-.2.4-.6.6-1,.6s-.6-.2-.8-.5c-.2-.3-.3-.7-.3-1.2s.1-1,.3-1.3v.2ZM141,83.5c.4.5.8.7,1.5.7s1-.2,1.4-.6v.5h1.1v-7.2h-1.1v2.6c-.3-.4-.8-.6-1.3-.6s-1.1.2-1.5.7-.6,1.1-.6,1.9.2,1.5.6,1.9h-.1ZM135.9,80.2c.2.2.3.5.3.8h-2.1c0-.4.2-.7.4-.9s.5-.3.7-.3c.3,0,.6.2.7.3h0ZM136.5,84c.3-.2.6-.4.8-.7l-.6-.6c-.3.4-.7.6-1.3.6s-.7-.1-.9-.3-.4-.6-.4-1h3.3v-.5c0-.8-.2-1.4-.6-1.9s-.9-.7-1.6-.7-.8.1-1.2.3c-.3.2-.6.5-.8.9-.2.4-.3.8-.3,1.4h0c0,.8.2,1.5.7,1.9.5.5,1,.7,1.7.7s.8,0,1.1-.2h0ZM128.5,78.2c.1.1.3.2.5.2s.3,0,.5-.2.2-.3.2-.5,0-.3-.2-.5-.3-.2-.5-.2-.3,0-.5.2-.2.3-.2.5,0,.3.2.5ZM129.5,79.1h-1.1v5.1h1.1v-5.1ZM119.9,79.1v5.1h1.1v-3.7c.2-.4.5-.6,1-.6s.9.3.9.9v3.3h1.1v-3.5c0-.2.2-.4.3-.6.2-.1.4-.2.6-.2.3,0,.6,0,.7.2s.2.4.2.7v3.3h1.1v-3.3c0-.6-.2-1.1-.4-1.4-.3-.3-.7-.5-1.2-.5s-1.2.3-1.6.8c-.2-.5-.7-.8-1.4-.8s-1.1.2-1.5.6v-.5h-1v.2ZM117.7,84.1h1.1v-5.1h-1.1v3.6c-.2.4-.6.6-1.1.6s-.8-.3-.8-1v-3.3h-1.1v3.3c0,.6.1,1.1.5,1.4.3.3.7.5,1.2.5s1.1-.2,1.4-.6v.5h-.1ZM112.3,83.2c-.2.1-.4.2-.7.2s-.6,0-.7-.2c-.2-.2-.3-.3-.3-.6h-1.1c0,.3.1.6.3.8.2.3.5.5.7.6.3.2.7.2,1.1.2s1.1-.1,1.5-.5c.4-.3.6-.7.6-1.1s0-.5-.2-.7c-.1-.2-.3-.3-.6-.5-.3-.1-.6-.2-1.1-.3-.5-.1-.7-.2-.9-.3-.2-.1-.2-.2-.2-.4s0-.3.2-.5.3-.2.6-.2.5,0,.6.2.2.3.2.6h1.1c0-.5-.2-.8-.6-1.2-.4-.3-.8-.5-1.5-.5s-1,.2-1.4.5-.6.7-.6,1.1.3.9.8,1.2c.3.1.6.2,1,.3.4,0,.7.2.8.3.2.1.2.3.2.5.1.2,0,.4-.1.5h.3ZM104.3,79.1v5.1h1.1v-3.6c.2-.4.6-.6,1-.6s.6,0,.7.2.2.4.2.7v3.3h1.1v-3.3c0-1.2-.6-1.8-1.6-1.8s-1.1.2-1.5.7v-.6h-1.1,0ZM100.2,80.4c.2-.3.5-.5.9-.5s.7.2.9.5c.2.3.3.7.3,1.2s-.1,1-.3,1.3c-.2.3-.5.5-.9.5s-.7-.2-.9-.5c-.2-.3-.3-.7-.3-1.2s.1-1,.3-1.3ZM98.7,81.7c0,.8.2,1.4.6,1.9.5.5,1,.7,1.7.7s.9-.1,1.2-.3c.3-.2.6-.5.8-.9.2-.4.3-.8.3-1.4v-.3c0-.7-.3-1.3-.7-1.7s-1-.7-1.7-.7-.8.1-1.2.3c-.3.2-.6.5-.8.9-.1.4-.2.8-.2,1.4h0ZM95.1,83c-.2-.3-.3-.7-.3-1.2v-.2c0-.6.1-1,.3-1.2.2-.3.5-.4.8-.4s.5.1.7.3c.2.2.3.5.3.7h1.1c0-.6-.2-1-.6-1.4-.4-.3-.8-.5-1.5-.5s-1.3.2-1.7.7c-.4.5-.6,1.1-.6,1.9h0c0,.9.2,1.6.6,2,.4.5,1,.7,1.7.7s.7,0,1-.2.6-.4.7-.6c.2-.3.3-.6.3-.9h-1.1c0,.2-.1.5-.3.6-.2.2-.5.2-.7.2s-.6-.1-.8-.4h.1ZM90.2,84.9c.2-.3.2-.7.2-1v-.8h-1v.9c0,.2,0,.5-.1.6,0,.2-.2.5-.4.7l.6.3c.3-.1.5-.4.7-.7ZM87.1,78.2c.1.1.3.2.5.2s.3,0,.5-.2c.1-.1.2-.3.2-.5s0-.3-.2-.5c-.1-.1-.3-.2-.5-.2s-.3,0-.5.2-.2.3-.2.5,0,.3.2.5ZM88.2,79.1h-1.1v5.1h1.1v-5.1ZM81.6,79.1v5.1h1.1v-3.6c.2-.4.6-.6,1-.6s.6,0,.7.2c.1.2.2.4.2.7v3.3h1.1v-3.3c0-1.2-.6-1.8-1.6-1.8s-1.1.2-1.5.7v-.6h-1.1.1ZM77.5,80.4c.2-.3.5-.5.9-.5s.7.2.9.5.3.7.3,1.2-.1,1-.3,1.3-.5.5-.9.5-.7-.2-.9-.5-.3-.7-.3-1.2.1-1,.3-1.3ZM76,81.7c0,.8.2,1.4.6,1.9.5.5,1,.7,1.7.7s.9-.1,1.2-.3c.3-.2.6-.5.8-.9s.3-.8.3-1.4v-.3c0-.7-.3-1.3-.7-1.7-.5-.5-1-.7-1.7-.7s-.8.1-1.2.3c-.3.2-.6.5-.8.9s-.2.8-.2,1.4h0ZM73.9,78.2c.1.1.3.2.5.2s.3,0,.5-.2.2-.3.2-.5,0-.3-.2-.5-.3-.2-.5-.2-.3,0-.5.2-.2.3-.2.5,0,.3.2.5ZM74.9,79.1h-1.1v5.1h1.1v-5.1ZM71.4,83.2c-.2.1-.4.2-.7.2s-.6,0-.7-.2c-.2-.2-.3-.3-.3-.6h-1.1c0,.3.1.6.3.8.2.3.5.5.7.6.3.2.7.2,1.1.2s1.1-.1,1.5-.5c.4-.3.6-.7.6-1.1s0-.5-.2-.7c-.1-.2-.3-.3-.6-.5-.3-.1-.6-.2-1.1-.3-.5-.1-.7-.2-.9-.3-.2-.1-.2-.2-.2-.4s0-.3.2-.5c.2-.1.3-.2.6-.2s.5,0,.6.2c.2.2.2.3.2.6h1.1c0-.5-.2-.8-.6-1.2-.4-.3-.8-.5-1.5-.5s-1,.2-1.4.5-.6.7-.6,1.1.3.9.8,1.2c.3.1.6.2,1,.3.4,0,.7.2.8.3.2.1.2.3.2.5.2.2,0,.4-.1.5h.3ZM63.4,79.1v5.1h1.1v-3.6c.2-.4.6-.6,1-.6s.6,0,.7.2c.1.2.2.4.2.7v3.3h1.1v-3.3c0-1.2-.6-1.8-1.6-1.8s-1.1.2-1.5.7v-.6h-1.1.1ZM61.2,80.2c.2.2.3.5.3.8h-2.1c0-.4.2-.7.4-.9.2-.2.5-.3.7-.3.3,0,.6.2.7.3h0ZM61.7,84c.3-.2.6-.4.8-.7l-.6-.6c-.3.4-.7.6-1.3.6s-.7-.1-.9-.3c-.2-.2-.4-.6-.4-1h3.3v-.5c0-.8-.2-1.4-.6-1.9-.4-.5-.9-.7-1.6-.7s-.8.1-1.2.3c-.3.2-.6.5-.8.9s-.3.8-.3,1.4h0c0,.8.2,1.5.7,1.9.5.5,1,.7,1.7.7s.8,0,1.1-.2h.1ZM55.9,82.9c-.2.3-.5.5-.8.5s-.8-.2-1-.6v-2.3c.2-.4.6-.6,1-.6s.7.2.8.5c.2.3.3.7.3,1.2s0,1-.3,1.3ZM57.3,81.6c0-.8-.2-1.5-.5-1.9-.3-.5-.8-.7-1.5-.7s-1,.2-1.4.6v-.5h-1.1v7h1.1v-2.4c.3.3.8.6,1.4.6s1.1-.2,1.4-.7c.3-.5.5-1.1.5-1.9h0c0-.1.1-.1.1-.1ZM49.2,84.9c.2-.3.2-.7.2-1v-.8h-1v.9c0,.2,0,.5-.1.6,0,.2-.2.5-.4.7l.6.3c.3-.1.5-.4.7-.7ZM46.1,80.2c.2.2.3.5.3.8h-2.1c0-.4.2-.7.4-.9.2-.2.5-.3.7-.3.3,0,.6.2.7.3h0ZM46.7,84c.3-.2.6-.4.8-.7l-.6-.6c-.3.4-.7.6-1.3.6s-.7-.1-.9-.3-.4-.6-.4-1h3.3v-.5c0-.8-.2-1.4-.6-1.9-.4-.5-.9-.7-1.6-.7s-.8.1-1.2.3c-.3.2-.6.5-.8.9s-.3.8-.3,1.4h0c0,.8.2,1.5.7,1.9.5.5,1,.7,1.7.7s.8,0,1.1-.2h.1ZM42.7,79.1h-.4c-.5,0-.8.2-1.1.7v-.6h-1.1v5.1h1.1v-3.4c.2-.4.5-.6,1.1-.6s.3,0,.5,0v-1.1h-.1ZM37.7,80.2c.2.2.3.5.3.8h-2.1c0-.4.2-.7.4-.9.2-.2.5-.3.7-.3.3,0,.6.2.7.3h0ZM38.2,84c.3-.2.6-.4.8-.7l-.6-.6c-.3.4-.7.6-1.3.6s-.7-.1-.9-.3c-.2-.2-.4-.6-.4-1h3.3v-.5c0-.8-.2-1.4-.6-1.9-.4-.5-.9-.7-1.6-.7s-.8.1-1.2.3c-.3.2-.6.5-.8.9s-.3.8-.3,1.4h0c0,.8.2,1.5.7,1.9.5.5,1,.7,1.7.7s.8,0,1.1-.2h.1ZM32.5,83.2c-.2.1-.4.2-.7.2s-.6,0-.7-.2c-.2-.2-.3-.3-.3-.6h-1.1c0,.3.1.6.3.8.2.3.5.5.7.6.3.2.7.2,1.1.2s1.1-.1,1.5-.5c.4-.3.6-.7.6-1.1s0-.5-.2-.7c-.1-.2-.3-.3-.6-.5-.3-.1-.6-.2-1.1-.3-.5-.1-.7-.2-.9-.3-.2-.1-.2-.2-.2-.4s0-.3.2-.5c.2-.1.3-.2.6-.2s.5,0,.6.2c.2.2.2.3.2.6h1.1c0-.5-.2-.8-.6-1.2-.4-.3-.8-.5-1.5-.5s-1,.2-1.4.5-.6.7-.6,1.1.3.9.8,1.2c.3.1.6.2,1,.3.4,0,.7.2.8.3.2.1.2.3.2.5.1.2,0,.4-.1.5h.3ZM27.6,83.2c-.2.1-.4.2-.7.2s-.6,0-.7-.2c-.2-.2-.3-.3-.3-.6h-1.1c0,.3.1.6.3.8.2.3.5.5.7.6.3.2.7.2,1.1.2s1.1-.1,1.5-.5c.4-.3.6-.7.6-1.1s0-.5-.2-.7c-.1-.2-.3-.3-.6-.5-.3-.1-.6-.2-1.1-.3-.5-.1-.7-.2-.9-.3-.2-.1-.2-.2-.2-.4s0-.3.2-.5c.2-.1.3-.2.6-.2s.5,0,.6.2c.2.2.2.3.2.6h1.1c0-.5-.2-.8-.6-1.2-.4-.3-.8-.5-1.5-.5s-1,.2-1.4.5-.6.7-.6,1.1.3.9.8,1.2c.3.1.6.2,1,.3.4,0,.7.2.8.3.2.1.2.3.2.5.1.2,0,.4-.1.5h.3ZM22.7,80.2c.2.2.3.5.3.8h-2.1c0-.4.2-.7.4-.9.2-.2.5-.3.7-.3.3,0,.6.2.7.3h0ZM23.3,84c.3-.2.6-.4.8-.7l-.6-.6c-.3.4-.7.6-1.3.6s-.7-.1-.9-.3c-.2-.2-.4-.6-.4-1h3.3v-.5c0-.8-.2-1.4-.6-1.9-.4-.5-.9-.7-1.6-.7s-.8.1-1.2.3c-.3.2-.6.5-.8.9s-.3.8-.3,1.4h0c0,.8.2,1.5.7,1.9.5.5,1,.7,1.7.7s.8,0,1.1-.2h.1ZM14.5,79.1v5.1h1.1v-3.6c.2-.4.6-.6,1-.6s.6,0,.7.2c.1.2.2.4.2.7v3.3h1.1v-3.3c0-1.2-.6-1.8-1.6-1.8s-1.1.2-1.5.7v-.6h-1.1.1ZM12.2,80.2c.2.2.3.5.3.8h-2.1c0-.4.2-.7.4-.9.2-.2.5-.3.7-.3.3,0,.6.2.7.3h0ZM12.8,84c.3-.2.6-.4.8-.7l-.6-.6c-.3.4-.7.6-1.3.6s-.7-.1-.9-.3c-.2-.2-.4-.6-.4-1h3.3v-.5c0-.8-.2-1.4-.6-1.9-.4-.5-.9-.7-1.6-.7s-.8.1-1.2.3c-.3.2-.6.5-.8.9s-.3.8-.3,1.4h0c0,.8.2,1.5.7,1.9.5.5,1,.7,1.7.7s.8,0,1.1-.2h.1ZM7.3,81.7c0,.6-.1,1-.3,1.2-.2.3-.5.4-.8.4s-.8-.2-1.1-.7v-2.1c.2-.5.6-.6,1-.6s.7.1.8.4c.2.3.3.7.3,1.2v.2h.1ZM8.4,81.6c0-.8-.2-1.5-.5-1.9-.3-.5-.8-.7-1.5-.7s-1,.2-1.3.6v-2.6h-1.1v7.2h1v-.6c.4.5.8.6,1.5.6s1.1-.2,1.5-.7c.3-.5.5-1.1.5-1.9h0Z"/>
  <path class="st0" d="M261,74.9c.2-.3.2-.7.2-1v-.8h-1v.9c0,.2,0,.5-.1.6,0,.2-.2.5-.4.7l.6.3c.3-.1.5-.4.7-.7h0ZM257.9,70.2c.2.2.3.5.3.8h-2.1c0-.4.2-.7.4-.9s.5-.3.7-.3c.3,0,.6.2.7.3h0ZM258.4,74c.3-.2.6-.4.8-.7l-.6-.6c-.3.4-.7.6-1.3.6s-.7-.1-.9-.3-.4-.6-.4-1h3.3v-.5c0-.8-.2-1.4-.6-1.9s-.9-.7-1.6-.7-.8.1-1.2.3c-.3.2-.6.5-.8.9-.2.4-.3.8-.3,1.4h0c0,.8.2,1.5.7,1.9.5.5,1,.7,1.7.7s.8,0,1.1-.2h0ZM252.2,67.9v1.2h-.8v.8h.8v2.9c0,1,.5,1.5,1.3,1.5s.5,0,.7-.1v-.9h-.4c-.2,0-.3,0-.4-.1,0-.1-.1-.2-.1-.4v-2.8h.9v-.8h-.9v-1.2h-1.1ZM249.7,74.2h1.1v-5.1h-1.1v3.7c-.2.4-.6.6-1.1.6s-.8-.3-.8-1v-3.3h-1.1v3.3c0,.6.1,1.1.5,1.4.3.3.7.5,1.2.5s1.1-.2,1.4-.6v.4h-.1ZM245.3,67h-1.1v7.2h1.1v-7.2ZM240.1,73.2c-.2-.1-.2-.3-.2-.5s.1-.5.3-.6c.2-.2.5-.2,1-.2h.6v1c-.1.2-.2.3-.5.5-.2.1-.4.2-.6.2s-.5-.1-.6-.2v-.2ZM243.1,74.2c-.1-.3-.2-.7-.2-1.1v-2.3c0-.6-.2-1-.6-1.2-.3-.3-.8-.5-1.4-.5s-.7,0-1.1.2c-.3.1-.6.3-.7.6-.2.2-.3.5-.3.8h1.1c0-.2,0-.3.2-.5.2-.1.4-.2.6-.2s.5,0,.7.2.2.4.2.6v.3h-.7c-.7,0-1.3.2-1.7.5-.4.3-.6.7-.6,1.2s.2.8.5,1.1c.3.3.7.5,1.2.5s1-.2,1.4-.6c0,.2,0,.4.1.5h1.3ZM236.6,73.3c-.2.1-.4.2-.7.2s-.6,0-.7-.2c-.2-.2-.3-.3-.3-.6h-1.1c0,.3.1.6.3.8.2.3.5.5.7.6.3.2.7.2,1.1.2s1.1-.1,1.5-.5c.4-.3.6-.7.6-1.1s0-.5-.2-.7c-.1-.2-.3-.3-.6-.5-.3-.1-.6-.2-1.1-.3-.5-.1-.7-.2-.9-.3-.2-.1-.2-.2-.2-.4s0-.3.2-.5c.2-.1.3-.2.6-.2s.5,0,.6.2c.2.2.2.3.2.6h1.1c0-.5-.2-.8-.6-1.2-.4-.3-.8-.5-1.5-.5s-1,.2-1.4.5-.6.7-.6,1.1.3.9.8,1.2c.3.1.6.2,1,.3.4,0,.7.2.8.3s.2.3.2.5c.1.2,0,.4-.1.5h.3ZM229.4,74.2h1.1v-5.1h-1.1v3.7c-.2.4-.6.6-1.1.6s-.8-.3-.8-1v-3.3h-1.1v3.3c0,.6.2,1.1.5,1.4s.7.5,1.2.5,1.1-.2,1.4-.6v.4h-.1ZM224,73.3c-.2.1-.4.2-.7.2s-.6,0-.7-.2-.3-.3-.3-.6h-1.1c0,.3.1.6.3.8.2.3.5.5.7.6.3.2.7.2,1.1.2s1.1-.1,1.5-.5c.4-.3.6-.7.6-1.1s0-.5-.2-.7c-.1-.2-.3-.3-.6-.5-.3-.1-.6-.2-1.1-.3-.5-.1-.7-.2-.9-.3-.2-.1-.2-.2-.2-.4s0-.3.2-.5c.2-.1.3-.2.6-.2s.5,0,.6.2c.2.2.2.3.2.6h1.1c0-.5-.2-.8-.6-1.2-.4-.3-.8-.5-1.5-.5s-1,.2-1.4.5-.6.7-.6,1.1.3.9.8,1.2c.3.1.6.2,1,.3.4,0,.7.2.8.3.2.1.2.3.2.5.1.2,0,.4-.1.5h.3ZM216.7,68.3c.1.1.3.2.4.2s.3,0,.5-.2.2-.3.2-.5,0-.3-.2-.5-.3-.2-.5-.2-.3,0-.4.2c-.1.1-.2.3-.2.5s0,.3.2.5ZM217.8,69.1h-1.1v5.1h1.1v-5.1ZM215.3,67h-1.1v7.2h1.1v-7.2ZM211.8,68.3c.1.1.3.2.4.2s.3,0,.5-.2.2-.3.2-.5,0-.3-.2-.5-.3-.2-.5-.2-.3,0-.4.2c-.1.1-.2.3-.2.5s0,.3.2.5ZM212.9,69.1h-1.1v5.1h1.1v-5.1ZM208.7,67.9v1.2h-.8v.8h.8v2.9c0,1,.5,1.5,1.3,1.5s.5,0,.7-.1v-.9h-.4c-.2,0-.3,0-.4-.1,0-.1-.1-.2-.1-.4v-2.8h.9v-.8h-.9v-1.2h-1.1ZM206.2,74.2h1.1v-5.1h-1.1v3.7c-.2.4-.6.6-1.1.6s-.8-.3-.8-1v-3.3h-1.1v3.3c0,.6.2,1.1.4,1.4.3.3.7.5,1.2.5s1.1-.2,1.4-.6v.4h0ZM198.5,68.3c.1.1.3.2.5.2s.3,0,.5-.2.2-.3.2-.5,0-.3-.2-.5-.3-.2-.5-.2-.3,0-.5.2-.2.3-.2.5,0,.3.2.5ZM199.6,69.1h-1.1v5.1h1.1v-5.1ZM193,69.1v5.1h1.1v-3.6c.2-.4.6-.6,1-.6s.6,0,.7.2.2.4.2.7v3.3h1.1v-3.3c0-1.2-.6-1.8-1.6-1.8s-1.1.2-1.5.7v-.6h-1.1,0ZM188.8,70.4c.2-.3.5-.5.9-.5s.7.2.9.5c.2.3.3.7.3,1.2s-.1,1-.3,1.3c-.2.3-.5.5-.9.5s-.7-.2-.9-.5c-.2-.3-.3-.7-.3-1.2s.1-1,.3-1.3ZM187.3,71.6c0,.8.2,1.4.6,1.9.5.5,1,.7,1.7.7s.9-.1,1.2-.3c.3-.2.6-.5.8-.9.2-.4.3-.8.3-1.4v-.3c0-.7-.3-1.3-.7-1.7-.4-.5-1-.7-1.7-.7s-.8.1-1.2.3c-.3.2-.6.5-.8.9-.1.5-.2.9-.2,1.4h0ZM185.3,68.3c.1.1.3.2.5.2s.3,0,.5-.2.2-.3.2-.5,0-.3-.2-.5-.3-.2-.5-.2-.3,0-.5.2-.2.3-.2.5,0,.3.2.5ZM186.3,69.1h-1.1v5.1h1.1v-5.1ZM184.1,69.8v-.7h-3.9v.9h2.5l-2.6,3.4v.7h4.1v-.9h-2.7l2.6-3.4ZM176.3,73.2c-.2-.1-.2-.3-.2-.5s.1-.5.3-.6c.2-.2.5-.2,1-.2h.6v1c-.1.2-.2.3-.4.5-.2.1-.4.2-.6.2s-.5-.1-.6-.2v-.2ZM179.3,74.2c-.1-.3-.2-.7-.2-1.1v-2.3c0-.6-.2-1-.6-1.2-.3-.3-.8-.5-1.4-.5s-.7,0-1.1.2c-.3.1-.6.3-.7.6s-.3.5-.3.8h1.1c0-.2,0-.3.2-.5.2-.1.4-.2.6-.2s.5,0,.7.2.2.4.2.6v.3h-.7c-.7,0-1.3.2-1.7.5-.4.3-.6.7-.6,1.2s.2.8.5,1.1c.3.3.7.5,1.2.5s1-.2,1.4-.6c0,.2,0,.4.1.5h1.3ZM166.8,69.1v5.1h1.1v-3.7c.2-.4.5-.6,1-.6s.9.3.9.9v3.3h1.1v-3.5c0-.2.2-.4.3-.6.2-.1.4-.2.6-.2.3,0,.6,0,.7.2s.2.4.2.7v3.3h1.1v-3.3c0-.6-.2-1.1-.4-1.4-.3-.3-.7-.5-1.2-.5s-1.2.3-1.6.8c-.2-.5-.7-.8-1.4-.8s-1.1.2-1.5.6v-.5h-1v.2ZM166,69.1h-.4c-.5,0-.8.2-1.1.7v-.6h-1.1v5.1h1.1v-3.4c.2-.4.5-.6,1.1-.6s.3,0,.5,0v-1.1h-.1ZM159.2,70.4c.2-.3.5-.5.9-.5s.7.2.9.5c.2.3.3.7.3,1.2s-.1,1-.3,1.3c-.2.3-.5.5-.9.5s-.7-.2-.9-.5c-.2-.3-.3-.7-.3-1.2s.1-1,.3-1.3ZM157.8,71.6c0,.8.2,1.4.6,1.9.5.5,1,.7,1.7.7s.9-.1,1.2-.3c.3-.2.6-.5.8-.9.2-.4.3-.8.3-1.4v-.3c0-.7-.3-1.3-.7-1.7-.4-.5-1-.7-1.7-.7s-.8.1-1.2.3c-.3.2-.6.5-.8.9-.2.5-.2.9-.2,1.4h0ZM156.1,74.2v-4.2h1v-.8h-1v-.5c0-.6.3-.8.8-.8h.5v-.9h-.6c-.6,0-1,.2-1.3.5s-.5.7-.5,1.3v.5h-.8v.8h.8v4.2h1.1ZM149.2,69.1v5.1h1.1v-3.6c.2-.4.6-.6,1-.6s.6,0,.7.2.2.4.2.7v3.3h1.1v-3.3c0-1.2-.6-1.8-1.6-1.8s-1.1.2-1.5.7v-.6h-1.1,0ZM146.9,68.3c.1.1.3.2.4.2s.3,0,.5-.2.2-.3.2-.5,0-.3-.2-.5-.3-.2-.5-.2-.3,0-.4.2c-.1.1-.2.3-.2.5s0,.3.2.5ZM148,69.1h-1.1v5.1h1.1v-5.1ZM143.1,74.9c.2-.3.2-.7.2-1v-.8h-1v.9c0,.2,0,.5-.1.6,0,.2-.2.5-.4.7l.6.3c.3-.1.5-.4.7-.7h0ZM140,68.3c.1.1.3.2.5.2s.3,0,.4-.2c.1-.1.2-.3.2-.5s0-.3-.2-.5-.3-.2-.4-.2-.3,0-.5.2-.2.3-.2.5,0,.3.2.5ZM141.1,69.1h-1.1v5.1h1.1v-5.1ZM137.5,73.3c-.2.1-.4.2-.7.2s-.6,0-.7-.2c-.2-.2-.3-.3-.3-.6h-1.1c0,.3.1.6.3.8.2.3.5.5.7.6.3.2.7.2,1.1.2s1.1-.1,1.5-.5c.4-.3.6-.7.6-1.1s0-.5-.2-.7c-.1-.2-.3-.3-.6-.5-.3-.1-.6-.2-1.1-.3-.5-.1-.7-.2-.9-.3-.2-.1-.2-.2-.2-.4s0-.3.2-.5c.2-.1.3-.2.6-.2s.5,0,.6.2c.2.2.2.3.2.6h1.1c0-.5-.2-.8-.6-1.2-.4-.3-.8-.5-1.5-.5s-1,.2-1.4.5-.6.7-.6,1.1.3.9.8,1.2c.3.1.6.2,1,.3.4,0,.7.2.8.3.2.1.2.3.2.5.1.2,0,.4-.1.5h.3ZM132.6,68.3c.1.1.3.2.5.2s.3,0,.5-.2.2-.3.2-.5,0-.3-.2-.5-.3-.2-.5-.2-.3,0-.5.2-.2.3-.2.5,0,.3.2.5ZM133.7,69.1h-1.1v5.1h1.1v-5.1ZM131.2,67h-1.1v7.2h1.1v-7.2ZM126,73.2c-.2-.1-.2-.3-.2-.5s.1-.5.3-.6c.2-.2.5-.2,1-.2h.6v1c-.1.2-.2.3-.5.5-.2.1-.4.2-.6.2s-.5-.1-.6-.2v-.2ZM129,74.2c-.1-.3-.2-.7-.2-1.1v-2.3c0-.6-.2-1-.6-1.2-.3-.3-.8-.5-1.4-.5s-.7,0-1.1.2c-.3.1-.6.3-.7.6-.2.2-.3.5-.3.8h1.1c0-.2,0-.3.2-.5.2-.1.4-.2.6-.2s.5,0,.7.2.2.4.2.6v.3h-.7c-.7,0-1.3.2-1.7.5-.4.3-.6.7-.6,1.2s.2.8.5,1.1c.3.3.7.5,1.2.5s1-.2,1.4-.6c0,.2,0,.4.1.5h1.3ZM119.5,69.1v5.1h1.1v-3.6c.2-.4.6-.6,1-.6s.6,0,.7.2.2.4.2.7v3.3h1.1v-3.3c0-1.2-.6-1.8-1.6-1.8s-1.1.2-1.5.7v-.6h-1.1,0ZM115.5,73.2c-.2-.1-.2-.3-.2-.5s.1-.5.3-.6c.2-.2.5-.2,1-.2h.6v1c-.1.2-.2.3-.5.5s-.4.2-.6.2-.5-.1-.6-.2v-.2ZM118.5,74.2c-.1-.3-.2-.7-.2-1.1v-2.3c0-.6-.2-1-.6-1.2-.3-.3-.8-.5-1.4-.5s-.7,0-1.1.2c-.3.1-.6.3-.7.6-.2.2-.3.5-.3.8h1.1c0-.2,0-.3.2-.5.2-.1.4-.2.6-.2s.5,0,.7.2.2.4.2.6v.3h-.7c-.7,0-1.3.2-1.7.5-.4.3-.6.7-.6,1.2s.2.8.5,1.1c.3.3.7.5,1.2.5s1-.2,1.4-.6c0,.2,0,.4.1.5h1.3ZM110.6,74.9c.2-.3.2-.7.2-1v-.8h-1v.9c0,.2,0,.5-.1.6,0,.2-.2.5-.4.7l.6.3c.3-.1.5-.4.7-.7h0ZM107.5,73.3c-.2.1-.4.2-.7.2s-.6,0-.7-.2-.3-.3-.3-.6h-1.1c0,.3.1.6.3.8s.5.5.7.6c.3.2.7.2,1.1.2s1.1-.1,1.5-.5c.4-.3.6-.7.6-1.1s0-.5-.2-.7c-.1-.2-.3-.3-.6-.5-.3-.1-.6-.2-1.1-.3-.5-.1-.7-.2-.9-.3-.2-.1-.2-.2-.2-.4s0-.3.2-.5c.2-.1.3-.2.6-.2s.5,0,.6.2c.2.2.2.3.2.6h1.1c0-.5-.2-.8-.6-1.2-.4-.3-.8-.5-1.5-.5s-1,.2-1.4.5-.6.7-.6,1.1.3.9.8,1.2c.3.1.6.2,1,.3.4,0,.7.2.8.3s.2.3.2.5c.1.2,0,.4-.1.5h.3ZM101.2,69.1h-.8l-1,3.4-.8-3.4h-1.1l1.4,5.1h1l1.1-3.5,1.1,3.5h1l1.4-5.1h-1.1l-.8,3.5-1.1-3.5h-.3ZM95.5,70.2c.2.2.3.5.3.8h-2.1c0-.4.2-.7.4-.9s.5-.3.7-.3c.3,0,.6.2.7.3h0ZM96,74c.3-.2.6-.4.8-.7l-.6-.6c-.3.4-.7.6-1.3.6s-.7-.1-.9-.3-.4-.6-.4-1h3.3v-.5c0-.8-.2-1.4-.6-1.9s-.9-.7-1.6-.7-.8.1-1.2.3c-.3.2-.6.5-.8.9-.2.4-.3.8-.3,1.4h0c0,.8.2,1.5.7,1.9.5.5,1,.7,1.7.7s.8,0,1.1-.2h0ZM87.3,69.1v5.1h1.1v-3.6c.2-.4.6-.6,1-.6s.6,0,.7.2c.1.2.2.4.2.7v3.3h1.1v-3.3c0-1.2-.6-1.8-1.6-1.8s-1.1.2-1.5.7v-.6h-1.1.1ZM83.2,75.2c.2-.4.3-.8.3-1.2v-1.1h-1.4v1.2c0,.4-.1.8-.4,1.2l-.2.3.8.4c.3-.2.6-.6.8-1v.2ZM79.3,70.2c.2.2.2.3.2.6h0c0,.1-1.7.1-1.7.1.1-.7.4-1,.9-1s.5.1.6.3ZM80.2,74c.4-.2.7-.4.9-.7l-.8-.9c-.3.4-.7.6-1.2.6s-.6-.1-.8-.3c-.2-.2-.3-.4-.4-.7h3.4v-.7c0-.8-.2-1.5-.7-2s-1.1-.7-1.8-.7-1,.1-1.4.3c-.4.2-.7.6-.9,1-.2.5-.3.9-.3,1.5h0c0,.9.3,1.6.8,2.1s1.2.7,2,.7.8,0,1.2-.2h0ZM75.2,66.5h-1.7v7.7h1.7v-7.7ZM70.8,67.9c.2.2.4.2.7.2s.5,0,.7-.2.3-.3.3-.6-.1-.5-.3-.6-.4-.2-.7-.2-.5,0-.7.2-.3.3-.3.6.1.5.3.6ZM72.4,68.7h-1.7v5.5h1.7v-5.5ZM68,73c-.1.1-.3.2-.5.2s-.5,0-.6-.2c-.2-.1-.2-.3-.2-.6h-1.6c0,.3.1.6.3.9s.5.5.8.7c.4.2.8.2,1.2.2.7,0,1.3-.2,1.7-.5.5-.3.7-.7.7-1.2s-.4-1.2-1.2-1.5c-.2,0-.5-.2-.8-.2s-.6-.1-.7-.2c-.2-.1-.2-.2-.2-.4s0-.3.2-.4c.1-.1.3-.2.5-.2.5,0,.7.2.7.7h1.7c0-.5-.2-1-.7-1.3s-1-.5-1.7-.5-1.2.2-1.6.5c-.4.3-.6.7-.6,1.2s0,.5.2.7.3.4.6.6.6.3,1.1.4.7.2.8.3c.2.1.2.2.2.3.1.3,0,.4,0,.5h-.3ZM59.4,68.7v5.5h1.7v-3.8c.2-.3.4-.4.7-.4s.5,0,.6.2.2.3.2.6v3.4h1.7v-3.5c0-.7-.2-1.2-.5-1.5s-.7-.5-1.3-.5-1.2.2-1.6.7v-.6h-1.6.1ZM56.9,70.2c.2.2.2.3.2.6h0c0,.1-1.7.1-1.7.1.1-.7.4-1,.9-1s.5.1.6.3ZM57.7,74c.4-.2.7-.4.9-.7l-.8-.9c-.3.4-.7.6-1.2.6s-.6-.1-.8-.3c-.2-.2-.3-.4-.4-.7h3.4v-.7c0-.8-.2-1.5-.7-2s-1.1-.7-1.8-.7-1,.1-1.4.3c-.4.2-.7.6-.9,1s-.3.9-.3,1.5h0c0,.9.3,1.6.8,2.1s1.2.7,2,.7.8,0,1.2-.2h0ZM44.9,68.7v5.5h1.7v-3.8c.2-.3.4-.5.7-.5s.5,0,.5.2c.1.1.1.3.1.6v3.4h1.7v-3.7h0c.2-.3.4-.5.7-.5s.4,0,.5.2.2.3.2.6v3.4h1.7v-3.5c0-1.4-.6-2-1.7-2s-1.2.3-1.6.8c-.2-.6-.7-.8-1.4-.8s-1.2.2-1.6.7v-.6h-1.6.1ZM38.1,71.2c0-.8.3-1.2.9-1.2s1,.5,1,1.5v.2c0,1-.3,1.4-.9,1.4s-.6-.1-.7-.3c-.2-.2-.2-.6-.2-1.1v-.5ZM36.4,71.7c0,.8.3,1.4.8,1.9s1.1.7,1.9.7,1.5-.2,1.9-.7c.5-.5.7-1.2.7-2h0c0-.9-.2-1.6-.7-2.1s-1.1-.7-1.9-.7-1,.1-1.4.3c-.4.2-.7.6-.9,1-.2.5-.3.9-.3,1.5v.3-.2ZM36.2,68.7h-.5c-.5,0-.9.3-1.2.8v-.7h-1.6v5.5h1.7v-3.4c.2-.3.5-.5,1-.5h.6v-1.6h0ZM29.6,67.4v1.4h-.7v1.2h.7v2.7c0,.6.1,1,.4,1.2s.7.4,1.3.4.7,0,1-.2v-1.2h-.5c-.2,0-.3,0-.5-.1,0,0-.1-.2-.1-.5v-2.5h.9v-1.2h-.8v-1.4h-1.7v.2ZM26.7,73c-.1.1-.3.2-.5.2s-.5,0-.6-.2c-.2-.1-.2-.3-.2-.6h-1.6c0,.3.1.6.3.9s.5.5.8.7c.4.2.8.2,1.2.2.7,0,1.3-.2,1.7-.5.5-.3.7-.7.7-1.2s-.4-1.2-1.2-1.5c-.2,0-.5-.2-.8-.2s-.6-.1-.7-.2c-.2-.1-.2-.2-.2-.4s0-.3.2-.4c.1-.1.3-.2.5-.2.5,0,.7.2.7.7h1.7c0-.5-.2-1-.7-1.3s-1-.5-1.7-.5-1.2.2-1.6.5c-.4.3-.6.7-.6,1.2s0,.5.2.7.3.4.6.6.6.3,1.1.4.7.2.8.3c.2.1.2.2.2.3.1.3,0,.4,0,.5h-.3ZM19.7,71.2c0-.8.3-1.2.9-1.2s1,.5,1,1.5v.2c0,1-.3,1.4-.9,1.4s-.6-.1-.7-.3c-.2-.2-.2-.6-.2-1.1v-.5ZM18,71.7c0,.8.3,1.4.8,1.9s1.1.7,1.9.7,1.5-.2,1.9-.7c.5-.5.7-1.2.7-2h0c0-.9-.2-1.6-.7-2.1s-1.1-.7-1.9-.7-1,.1-1.4.3c-.4.2-.7.6-.9,1-.2.5-.3.9-.3,1.5v.3-.2ZM12.4,68.7v5.5h1.7v-3.8c.2-.3.4-.4.7-.4s.5,0,.6.2.2.3.2.6v3.4h1.7v-3.5c0-.7-.2-1.2-.5-1.5s-.7-.5-1.3-.5-1.2.2-1.6.7v-.6h-1.6.1ZM8.8,66.5h-1.7v7.7h1.7v-7.7ZM5.8,66.8h-1.7v7.3h1.7v-7.3Z"/>
</svg>