<?xml version="1.0" encoding="UTF-8"?>
<svg id="Livello_1" xmlns="http://www.w3.org/2000/svg" version="1.1" viewBox="0 0 356.5 81.9">
  <!-- Generator: Adobe Illustrator 30.0.0, SVG Export Plug-In . SVG Version: 2.1.1 Build 123)  -->
  <defs>
    <style>
      .st0 {
        fill: #fff;
      }
    </style>
  </defs>
  <path class="st0" d="M349.5,2.6c-3.7-1.9-8.4-2.8-13.9-2.8h-18.1c-37.3,0-100.9,0-156.9.2-44.8,0-83.6.2-101.9.2h-3.8c-6.9,0-15.4,0-26.7.3-7.6.2-13.6.3-18.1.5h-3.2v6.3c-1.2,0-2.2,0-3.2.2l-3.3.2v59.9c0,4.8,2.3,8.6,6.7,10.9,3.7,2,8.4,3,13.9,3h18.9c7.6,0,246.2-.5,248.3-.5,16.2,0,30-.2,40.8-.5,7.4-.3,13.1-.5,17.6-.7l3.3-.2v-6.1c1.2,0,2.2,0,3.3-.2l3.3-.3V13.8c0-5.1-2.3-8.9-6.8-11.1h-.2ZM335.4,73.8h1.2-1.2ZM339.4,73.7h1.1-1.1ZM342.1,73.6h.5-.5ZM343.1,73.5h.4-.4ZM352.8,69.6c-4.5.3-10.3.5-17.5.7-7.2.3-20,.5-40.7.5s-241.2.4-248.4.6h-18.6c-5,0-9.1-.9-12.3-2.6s-4.8-4.4-4.8-7.8V4.3c4.5-.3,10.8-.4,18-.5,11.3-.2,19.6-.3,26.6-.3h3.7c41.5,0,192.1-.4,258.8-.4h18.1c5,0,9.1.8,12.3,2.4,3.2,1.6,4.8,4.3,4.8,8v56h0Z"/>
  <path class="st0" d="M259.9,29h-5.9v-5.8c0-.4,0-.6-.2-.8,0-.2-.4-.4-.6-.4-.3,0-.7-.2-1.2-.2h-8.5v7.1h-3.8v8.4c0,.4.2.6.4.8s.4.4.8.4h2.6v5.2c0,1.8.3,3.4.7,4.7.5,1.3,1.2,2.5,2.2,3.4s2.1,1.6,3.6,2c1.3.4,2.9.7,4.6.7h4.5c.4,0,.9,0,1.2-.2.2,0,.4-.4.5-.7.2-.4.2-.7.2-1.2v-7.8h-.8c-.4,0-1,0-1.4.2h-3.7c-.3,0-.4,0-.6-.3-.2-.2-.3-.4-.4-.7v-5.2h7v-7.9c0-.7,0-1.2-.3-1.4-.3-.3-.6-.4-1.1-.4h.2Z"/>
  <path class="st0" d="M210.4,49.7v-13.2c0-1.2-.2-2.3-.4-3.3-.3-1-.7-1.8-1.2-2.5s-1.2-1.2-2-1.6c-.7-.4-1.6-.6-2.6-.6s-2,.2-2.9.5c-.9.4-1.7.9-2.4,1.6-.7.7-1.4,1.7-2,2.8h-.8v-2.9c0-.4,0-.7-.2-1s-.4-.4-.6-.6c-.3-.2-.6-.3-1.1-.3h-8.8v25.3c0,.2.2.4.4.4s.4.2.6.3h9.5v-15.9l.2-.2c.4-.3.6-.4,1-.6.3-.2.6-.3.9-.4h1c.4,0,.7,0,.9.3.2.2.4.4.4.7,0,1.7-.3,3.4-.3,5.1s0,3.3-.2,4.8v4.5c0,1.4,0,.8.3,1.1s.4.4.7.6c.3.2.7.3,1.2.3h8.9c0-.8,0-1.6-.2-2.5-.4-.9-.4-1.8-.4-2.7h.1Z"/>
  <path class="st0" d="M239.8,45.7h-1.7c-.2,0-.4-.3-.4-.5v-7.2c0-1.6-.3-2.9-.8-4.1s-1.3-2.2-2.4-3-2.4-1.4-4-1.9c-1.6-.4-3.4-.6-5.5-.6s-3.4,0-4.9.3c-1.5.2-2.7.4-3.7.7-1,.3-1.6.6-2,.9,0,.2-.2.4-.3.6v7.4h.7c1-.4,1.9-.5,2.9-.7s1.9-.4,2.9-.4,1.9-.2,2.8-.2,1.8,0,2.4.2c.5.2,1.1.4,1.3.7.4.4.5.8.6,1.2v.7h-.5c-.9,0-1.9-.2-2.9-.2h-3.6c-1.3,0-2.2.2-3.2.5-1,.4-1.8.9-2.4,1.5-.7.6-1.2,1.4-1.5,2.3-.4.9-.5,1.9-.5,3v1.5c0,1.3.3,2.6.9,3.6s1.4,1.8,2.6,2.3c1.1.5,2.4.8,3.9.8s2.3-.2,3.3-.5c1-.4,1.7-.8,2.4-1.5.6-.6,1.2-1.4,1.6-2.2h.7c.4.9,1.1,1.6,1.8,2.1.8.6,1.6,1,2.6,1.3s2,.4,2.9.4h1.9c.7,0,1.2-.2,1.4-.4.2,0,.4-.3.5-.6.2-.4.2-.7.2-1.2v-6.9h0ZM227.7,44.7v2.3s-.3.2-.4.2c-.4.3-1,.4-1.5.5-.5,0-1.1.2-1.7.2s-.9,0-1.1-.3-.4-.5-.4-1.1v-1.2c0-.2,0-.4.2-.5.2,0,.4-.2.6-.3h4l.3.2Z"/>
  <path class="st0" d="M266.9,25.7c.4.2.9.4,1.5.4h10.2v-7c0-.4-.2-.8-.6-1s-.9-.3-1.5-.3h-10.3v7.1c0,.3.4.5.7.8h0Z"/>
  <path class="st0" d="M294.6,43.9c-.3-.2-.6-.2-1-.2h-6.1c-.9,0-2,0-3.1.2v9c0,.5,0,1,.3,1.2.2.4.4.5.7.7.3.2.7.3,1.2.3h8.9v-9.5c0-.4,0-.8-.2-1.1-.3-.3-.4-.5-.7-.6h0Z"/>
  <path class="st0" d="M312.7,44.9h-2.5v-14.5c0-.4,0-.7-.3-.9-.2-.2-.4-.4-.8-.5-.4,0-.8-.2-1.2-.2h-10.8v8.1c0,1.3,0,1,.3,1.2.2.3.4.4.6.4h1.6v9c0,1.2.2,2.2.5,3.2.4.9.8,1.7,1.5,2.3.7.6,1.5,1.1,2.5,1.4,1,.4,2,.4,3.3.4h3.8c.4,0,.7,0,.9-.2.3-.2.4-.4.6-.6,0-.3.2-.6.2-1.1v-8.2l-.2.2Z"/>
  <path class="st0" d="M332.4,29h-5.9v-5.8c0-.4,0-.6-.2-.8,0-.2-.4-.4-.6-.4-.3,0-.7-.2-1.2-.2h-8.5v7.1h-3.8v8.4c0,.4.2.6.4.8s.4.4.8.4h2.6v5.2c0,1.8.3,3.4.7,4.7.5,1.3,1.2,2.5,2.2,3.4s2.1,1.6,3.6,2c1.3.4,2.9.7,4.6.7h4.5c.4,0,.9,0,1.2-.2.2,0,.4-.4.5-.7.2-.4.2-.7.2-1.2v-7.8h-.8c-.4,0-1,0-1.4.2h-3.7c-.3,0-.4,0-.6-.3-.2-.2-.3-.4-.4-.7v-5.2h7v-7.9c0-.7,0-1.2-.3-1.4-.3-.3-.6-.4-1.1-.4h.2Z"/>
  <path class="st0" d="M280.5,45.5c-.2-.2-.4-.2-.7-.2h-2.1v-15c0-.4,0-.6-.3-.8-.2-.2-.4-.4-.7-.5-.4,0-.8-.2-1.4-.2h-12v8.5c0,.4.2.5.3.7.2.2.3.3.5.3h2.8v4.9c0,.4,0,.8.2,1.2v.7h-4.1v7.7c0,.4,0,.8.2,1.1,0,.3.3.5.5.6.3.2.5.2.9.2h16.5v-8.7c-.3-.3-.4-.4-.5-.6h0Z"/>
  <path class="st0" d="M179.3,31.2c-1.1-1-2.5-1.8-4-2.2-1.6-.5-3.4-.7-5.4-.7s-5.1.4-6.9,1.4c-1.9.9-3.4,2.2-4.4,4s-1.5,3.9-1.5,6.5v4.1c0,1.9.3,3.6.9,5,.5,1.4,1.4,2.7,2.5,3.7s2.4,1.7,4,2.1,3.4.7,5.4.7,5.1-.4,6.9-1.3c1.9-.9,3.4-2.1,4.4-3.9,1-1.7,1.5-3.8,1.5-6.3v-4c0-2-.3-3.7-.8-5.3-.6-1.5-1.5-2.8-2.6-3.7h0ZM172.1,43.7c0,.7,0,1.2-.2,1.6s-.4.6-.7.8-.8.3-1.3.3h-1.1c-.3,0-.5-.2-.7-.3-.2-.3-.4-.5-.4-.9v-4.5c0-.7,0-1.3.3-1.8.2-.4.4-.8.7-1,.4-.2.8-.3,1.3-.3h1c.3,0,.5.2.7.4.2.3.4.6.4,1.1v4.6h0Z"/>
  <path class="st0" d="M153.9,17.7c-.4-.2-.9-.3-1.5-.3h-10.3v7.1c0,.4.2.8.6,1s.9.4,1.5.4h10.2v-7c0-.6,0-1-.5-1.2h0Z"/>
  <path class="st0" d="M299.2,25.7c.4.2.9.4,1.5.4h10.2v-7c0-.4-.2-.8-.6-1s-.9-.3-1.5-.3h-10.3v7.1c0,.3.4.5.7.8h0Z"/>
  <path class="st0" d="M78.3,29.6c-1.8-.9-4-1.3-6.5-1.3s-3.7.3-5.3.9-2.9,1.4-4.1,2.5c-1.2,1.1-2,2.3-2.7,3.8-.6,1.5-.9,3.1-.9,4.9v3.7c0,1.9.3,3.6.9,5,.6,1.4,1.5,2.7,2.8,3.7,1.2,1,2.7,1.7,4.5,2.2s3.8.7,6.1.7,3,0,4.3-.2c1.2-.2,2.4-.4,3.3-.6,1-.3,1.6-.5,2-.9.2-.2.4-.4.5-.6,0-.3.2-.5.2-.8v-6.4h-.7c-1,.4-2,.6-2.9.8-.9.2-1.8.4-2.7.4h-2.9c-1,0-2.1,0-2.8-.2-.6-.2-1.1-.4-1.4-.5-.2-.3-.3-.5-.4-.8s-.2-.5-.2-.8v-.9h.5c.4,0,.9.2,1.3.3h12.1c.2,0,.4,0,.4-.2,0,0,.3-.3.3-.5v-4.6c0-2.3-.4-4.3-1.4-6-1-1.6-2.3-2.9-4.2-3.7h-.1ZM74.6,39.6v.4h-5.6v-.4c0-1,.3-1.7.8-2.3.5-.5,1.2-.8,2.2-.8s.8,0,1.1.2c.4,0,.6.3.9.4.2.2.4.5.4.9s.2.8.2,1.2v.4h0Z"/>
  <path class="st0" d="M153.8,51.5v-21.2c0-.3,0-.4-.2-.7-.2-.2-.4-.4-.8-.5-.4,0-1-.2-1.8-.2h-10.6v8.3c0,.5,0,1.1.3,1.4.2.4.4.6.6.6h2.1v14c0,.6.2,1.1.5,1.4s.8.5,1.5.5h8.8c0-.5,0-1.2-.2-1.7v-1.7l-.2-.2Z"/>
  <path class="st0" d="M54.6,26.1c-.6-1-1.3-1.7-2.2-2.3-.9-.6-1.9-1.1-3-1.4-1.2-.4-2.4-.4-3.7-.4h-8c-2.7,0-5.3,0-7.8.2v7.9c0,1.4,0,.9.2,1.2.2.3.4.4.6.4h.7v21.7c0,.5.2,1,.5,1.2.4.3.8.4,1.5.4h8.8c0-.8,0-1.6-.2-2.5v-4.8h4.7c1.2,0,2.9-.3,4.2-.8s2.3-1.3,3.1-2.4c.9-1.1,1.5-2.4,2-3.9s.7-3.2.7-5.2v-2.2c0-1.5-.2-2.8-.4-4s-.6-2.2-1.2-3.2h-.5ZM45.7,35.8v1.5c0,.4-.2.7-.4,1s-.4.4-.7.5c-.4,0-.7.2-1.2.2h-1.4v-7.5h2.4c.4,0,.7.2,1,.4,0,.2.3.5.4.8,0,.4.2.7.2,1.2v1.8h-.3Z"/>
  <path class="st0" d="M134.7,40.8c-1.2-.7-2.9-1.2-4.8-1.3l-3-.4c-.6,0-1.2-.2-1.5-.3-.4,0-.6-.2-.8-.4-.2-.2-.3-.4-.3-.5,0-.3,0-.4.3-.6.2-.2.5-.3,1-.4.4,0,1.1-.2,1.8-.2,1.3,0,2.6,0,3.7.3s2,.4,2.9.6c.9.3,1.8.5,2.7.8h.8v-7.6c0-.2,0-.4-.2-.6,0-.2-.2-.4-.4-.5-.2-.2-.6-.4-1.3-.7s-1.6-.4-2.9-.6c-1.2-.2-2.6-.3-4.3-.3s-4.2.2-5.9.6-3.1,1-4.2,1.7c-1.2.7-2,1.7-2.5,2.8-.5,1.1-.8,2.2-.8,3.7s.4,2.9,1,3.9,1.6,1.8,2.9,2.3c1.3.5,3.1,1,5.3,1.2l2.9.4c.6,0,1.1.2,1.3.4.3.2.4.4.6.5,0,.2.2.4.2.6s-.4.4-.7.6c-.4.2-.9.3-1.7.3h-3.5c-1,0-2-.2-2.8-.3-.8,0-1.7-.3-2.4-.4-.8-.2-1.6-.4-2.5-.7h-.8v8.1c0,.3.2.4.4.6s.6.4,1.2.5c.6.2,1.5.4,2.5.5,1,.2,2.1.4,3.3.4s2.5.2,3.8.2c2.9,0,5.3-.4,7.1-1,1.8-.7,3.1-1.7,4-2.9.9-1.3,1.3-2.9,1.3-4.8s-.4-2.6-1-3.7c-.7-1.3-1.7-2.2-2.9-2.9h.2Z"/>
  <path class="st0" d="M111.8,49.7v-13.2c0-1.2-.2-2.3-.4-3.3-.3-1-.7-1.8-1.2-2.5s-1.2-1.2-2-1.6c-.7-.4-1.6-.6-2.6-.6s-2,.2-2.9.5c-.9.4-1.7.9-2.4,1.6s-1.4,1.7-2,2.8h-.8v-2.9c0-.4,0-.7-.2-1s-.4-.4-.6-.6c-.3-.2-.6-.3-1.1-.3h-8.8v25.3c0,.2.2.4.4.4s.4.2.6.3h9.5v-15.9s0,0,.2-.2c.4-.3.6-.4,1-.6.3-.2.6-.3.9-.4h1c.4,0,.7,0,.9.3.2.2.4.4.4.7,0,1.7-.3,3.4-.3,5.1s0,3.3-.2,4.8v4.5c0,1.4,0,.8.3,1.1s.4.4.7.6.7.3,1.2.3h8.9c0-.8,0-1.6-.2-2.5-.4-.9-.4-1.8-.4-2.7h.1Z"/>
</svg>